<?xml version="1.0" standalone="no"?>
<!DOCTYPE svg PUBLIC "-//W3C//DTD SVG 20010904//EN"
 "http://www.w3.org/TR/2001/REC-SVG-20010904/DTD/svg10.dtd">
<svg version="1.0" xmlns="http://www.w3.org/2000/svg"
 width="260.000000pt" height="260.000000pt" viewBox="0 0 260.000000 260.000000"
 preserveAspectRatio="xMidYMid meet">
<metadata>
Created by potrace 1.11, written by Peter Selinger 2001-2013
</metadata>
<g transform="translate(0.000000,260.000000) scale(0.100000,-0.100000)"
fill="#000000" stroke="none">
<path d="M1200 2583 c-41 -13 -78 -34 -101 -60 -15 -15 -75 -122 -134 -238
-59 -115 -120 -232 -135 -260 -15 -27 -65 -122 -111 -210 -45 -88 -120 -232
-166 -320 -46 -88 -105 -202 -131 -252 -25 -51 -49 -93 -52 -93 -3 0 -6 28 -6
62 -1 73 -12 386 -19 533 -5 105 -13 317 -20 545 -2 74 -7 152 -10 172 -8 44
-48 88 -84 89 -154 8 -186 -28 -185 -211 0 -101 10 -307 19 -425 2 -22 6 -85
10 -140 4 -55 8 -116 10 -135 1 -19 6 -80 9 -135 4 -55 9 -111 11 -125 2 -14
7 -82 10 -152 3 -70 7 -135 9 -145 2 -10 7 -40 10 -67 26 -192 216 -253 367
-119 46 42 131 174 193 303 l56 115 0 -52 c0 -29 0 -55 0 -58 0 -3 10 -26 21
-52 26 -63 70 -106 133 -135 71 -32 209 -32 279 0 34 15 49 18 52 9 2 -7 11
-38 20 -70 53 -192 176 -332 343 -393 199 -73 516 -8 670 136 13 12 26 20 29
16 9 -8 -55 -194 -97 -281 -45 -95 -89 -153 -133 -178 -40 -23 -99 -17 -188
19 -110 45 -163 33 -195 -43 -22 -52 -18 -90 15 -122 60 -58 228 -91 351 -69
106 19 242 113 311 214 82 119 148 317 174 514 14 110 17 310 6 357 -28 110
-93 160 -224 170 -94 7 -139 -1 -177 -33 -39 -33 -41 -80 -5 -122 28 -33 66
-46 157 -51 31 -2 48 -30 47 -79 -2 -79 -9 -92 -79 -131 -121 -68 -238 -102
-381 -108 -159 -8 -246 23 -314 113 -52 67 -69 140 -68 284 1 289 105 556 288
743 106 107 216 174 330 200 111 25 174 4 206 -68 25 -55 26 -116 5 -178 -9
-26 -16 -59 -16 -73 0 -38 27 -82 60 -99 28 -14 34 -14 66 1 90 43 132 172
104 325 -23 128 -97 219 -206 256 -78 26 -228 24 -324 -5 -274 -82 -513 -290
-652 -567 -67 -133 -122 -326 -127 -451 -1 -24 -8 -34 -36 -47 -92 -44 -239 1
-296 91 -45 71 -41 137 12 239 238 452 340 663 388 808 47 142 28 233 -50 240
-19 1 -41 0 -49 -2z"/>
</g>
</svg>
